<svg viewBox="0 0 128 43" xmlns="http://www.w3.org/2000/svg"><g fill-rule="nonzero" fill="none"><ellipse fill="#FFFFFF" transform="rotate(-89.913 22.089 21.506)" cx="22.089" cy="21.506" rx="21.161" ry="21.371"></ellipse><g fill="currentColor"><path d="M22.0697812 1.90633333C18.8480189 1.90633333 16.2365464 4.54366667 16.2365464 7.79733333 16.2365464 11.051 18.8480189 13.6883333 22.0697812 13.6883333 25.2915435 13.6883333 27.903016 11.051 27.903016 7.79733333 27.903016 4.54366667 25.2915435 1.90633333 22.0697812 1.90633333zM22.0697812 10.9936667C20.3240686 10.9936667 18.9047901 9.503 18.9047901 7.71133333 18.9047901 5.90533333 20.295683 4.429 22.0697812 4.429 23.8438794 4.429 25.2347723 5.91966667 25.2347723 7.71133333 25.2347723 9.503 23.8296866 10.9936667 22.0697812 10.9936667zM4.86812537 13.588C2.37019515 13.588.0709639267 11.8966667.0709639267 11.8966667L1.68894145 10.0476667C1.68894145 10.0476667 3.07983442 10.9936667 4.59846245 11.1656667 5.30810171 11.2516667 6.45771733 11.4236667 6.78415139 10.492 6.94027203 10.0476667 6.75576582 9.57466667 6.2874039 9.38833333 5.53518628 9.10166667 5.16617386 8.97266667 4.21525724 8.643 3.1933767 8.28466667 2.27084565 8.06966667 1.53282082 7.53933333 1.09284447 7.20966667.567711413 6.47866667.525133057 5.547.496747487 4.62966667.780603193 3.85566667 1.36250739 3.23933333 2.34180958 2.22166667 3.61916026 1.92066667 4.58426966 1.92066667 6.55706682 1.92066667 8.34535778 2.881 8.34535778 2.881L7.29509166 5.00233333C7.29509166 5.00233333 4.18687167 3.68366667 3.23595506 4.74433333 2.90952099 5.117 2.96629213 5.61866667 3.06564163 5.79066667 3.40626848 6.39266667 4.08752218 6.55033333 5.222945 6.85133333 7.05381431 7.33866667 9.15434654 7.71133333 9.26788882 9.761 9.35304554 11.8106667 8.18923714 12.7423333 7.18154938 13.1723333 6.52868125 13.459 5.7054997 13.588 4.86812537 13.588zM34.5452395 1.92066667C33.3956239 1.92066667 32.3169722 2.26466667 31.4228267 2.967L31.4228267 2.17866667 28.8113542 2.17866667 28.8113542 15.6376667 28.8113542 15.6376667 31.4086339 15.6376667 31.4086339 15.6376667 31.4086339 12.3123333C31.9621526 12.8856667 32.8846836 13.6023333 34.5310467 13.6023333 37.6534595 13.6023333 40.2507392 11.0223333 40.2507392 7.783 40.264932 4.52933333 37.6676523 1.92066667 34.5452395 1.92066667zM34.5452395 10.9936667C33.0124187 10.9936667 31.735068 9.87566667 31.4228267 8.41366667L31.4228267 7.03766667C31.735068 5.57566667 32.9982259 4.472 34.5452395 4.472 36.3335305 4.472 37.7386162 5.94833333 37.7386162 7.72566667 37.7386162 9.51733333 36.3193377 10.9936667 34.5452395 10.9936667z" transform="translate(50.091 15.48)"></path><path d="M5.7054997,10.9363333 C2.49793022,10.9936667 2.710822,9.18766667 2.710822,7.02333333 L2.710822,0.043 L0.127735068,1.27566667 L0.127735068,7.25266667 L0.127735068,7.25266667 C0.127735068,10.621 0.0993494973,13.545 5.69130692,13.545 C5.7054997,13.0433333 5.7054997,11.1513333 5.7054997,10.9363333 Z" transform="translate(60.31 15.48)"></path><path d="M46.9213483,1.92066667 C45.7717327,1.92066667 44.693081,2.26466667 43.7989355,2.967 L43.7989355,2.17866667 L41.2016558,2.17866667 L41.2016558,15.6376667 L41.2016558,15.6376667 L43.7989355,15.6376667 L43.7989355,15.6376667 L43.7989355,12.3123333 C44.3524542,12.8856667 45.2749852,13.6023333 46.9213483,13.6023333 C50.0437611,13.6023333 52.6410408,11.0223333 52.6410408,7.783 C52.6410408,4.52933333 50.0437611,1.92066667 46.9213483,1.92066667 Z M46.9213483,10.9936667 C45.3885275,10.9936667 44.1111768,9.87566667 43.7989355,8.41366667 L43.7989355,7.03766667 C44.1111768,5.57566667 45.3743347,4.472 46.9213483,4.472 C48.7096393,4.472 50.114725,5.94833333 50.114725,7.72566667 C50.114725,9.51733333 48.6954465,10.9936667 46.9213483,10.9936667 Z" transform="translate(50.091 15.48)"></path><path d="M11.0987581,0.0286666667 L8.18923714,0.0286666667 L5.66292135,6.29233333 C5.57776464,6.106 2.86694264,0.0286666667 2.86694264,0.0286666667 L0.0141927853,0.0286666667 C0.0141927853,0.0286666667 2.6114725,5.56133333 2.96629213,6.33533333 C3.8746304,8.28466667 4.85393258,9.81833333 1.91602602,11.1513333 C2.00118273,11.352 2.8101715,13.0576667 3.02306328,13.5163333 C4.81135423,12.6563333 5.8048492,11.782 6.2874039,10.8646667 L6.2874039,10.8646667 L11.0987581,0.0286666667 Z" transform="translate(102.179 17.63)"></path><path d="M1.73151981 8.02666667L.198698995 8.02666667.198698995 2.709 1.73151981 2.709zM1.80248374.903C1.80248374 1.376 1.41927853 1.77733333.950916617 1.77733333.482554701 1.77733333.0993494973 1.376.0993494973.903.0993494973.444333333.482554701.0573333333.950916617.0573333333 1.41927853.0573333333 1.80248374.444333333 1.80248374.903zM6.84092253.043C4.61265523.043 2.8101715 1.86333333 2.8101715 4.11366667 2.8101715 6.364 4.61265523 8.18433333 6.84092253 8.18433333 9.06918983 8.18433333 10.8716736 6.364 10.8716736 4.11366667 10.8858664 1.86333333 9.06918983.043 6.84092253.043zM6.84092253 6.67933333C5.43583678 6.67933333 4.30041396 5.504 4.30041396 4.09933333 4.30041396 2.68033333 5.421644 1.51933333 6.84092253 1.51933333 8.26020106 1.51933333 9.38143111 2.68033333 9.38143111 4.09933333 9.38143111 5.504 8.24600828 6.67933333 6.84092253 6.67933333z" transform="translate(116.23 21.213)"></path></g><g fill="#3A4457"><path d="M13.7953873 2.52266667C15.1862803 2.55133333 16.9603785.817 20.6363099 2.98133333 17.3151981-.630666667 11.2264932-1.075 7.15316381 2.55133333 11.4535778.702333333 12.5180367 2.494 13.7953873 2.52266667zM23.9716144 5.34633333C22.9923122 4.24266667 18.5073921 2.881 18.3512714 4.601 17.8971023 9.30233333 26.2850384 8.557 25.4618569 15.0786667 24.9793022 20.5396667 22.7084565 24.3523333 13.6250739 26.4306667 9.25369604 27.434 3.13660556 22.8616667 2.04376109 15.3653333 1.27735068 10.0763333 7.53636901 9.73233333 8.8988764 4.45766667 8.92726198 4.35733333 9.01241869 4.09933333 8.72856298 4.01333333 1.49024246 1.82033333-.965109403 12.7853333.567711413 17.157 1.88764045 21.629 5.05263158 26.445 12.163217 27.305 15.1578947 27.6346667 18.7486694 27.434 23.1058545 23.3776667 26.4979302 20.4823333 29.4500296 11.5096667 23.9716144 5.34633333zM19.5576582 4.95933333C19.6428149 4.73 21.1046718 5.36066667 21.0479007 5.70466667 20.7640449 6.42133333 19.2596097 6.063 19.5576582 4.95933333zM7.59314015 5.13133333C7.70668244 5.87666667 6.08870491 6.407 5.98935541 5.87666667 5.89000591 5.203 7.47959787 4.57233333 7.59314015 5.13133333z" transform="translate(8.506 7.597)"></path><path d="M7.03962153 12.4843333C7.03962153 12.083 9.36723832 13.1866667 13.2134831 13.4446667 14.6185689 13.545 22.7794205 12.2836667 23.4890597 12.5416667 24.6102898 12.9573333 21.8001183 11.7246667 13.5399172 14.491L7.03962153 12.4843333zM16.4210526 7.052C15.6120639 6.47866667 14.547605 6.20633333 13.5115316 6.22066667L13.5115316 6.22066667 13.5115316 6.22066667 13.5115316 6.22066667 13.5115316 6.22066667C12.4754583 6.22066667 11.4109994 6.47866667 10.6020106 7.052 10.3465405 7.32433333 11.8225902 7.32433333 12.0922531 7.783 12.1916026 8.31333333 12.1064459 8.729 12.4754583 8.91533333 12.7451212 9.01566667 13.1992904 9.08733333 13.5115316 9.10166667L13.5115316 9.10166667 13.5115316 9.10166667 13.5115316 9.10166667 13.5115316 9.10166667C13.8237729 9.08733333 14.2637493 9.01566667 14.547605 8.91533333 14.9308102 8.71466667 14.8314607 8.299 14.9308102 7.783 15.2004731 7.32433333 16.6765228 7.32433333 16.4210526 7.052z" transform="translate(8.506 7.597)"></path></g></g></svg>